<svg width="51" height="51" viewBox="0 0 51 51" fill="none" xmlns="http://www.w3.org/2000/svg">
<path d="M26 1.00002C22.7484 0.881955 19.5066 1.42284 16.4695 2.59013C13.4324 3.75742 10.6628 5.527 8.32736 7.79241C5.99189 10.0578 4.1388 12.7722 2.87957 15.7724C1.62034 18.7725 0.980997 21.9964 0.999998 25.25C0.958098 28.628 1.63655 31.976 2.99014 35.0712C4.34373 38.1663 6.34138 40.9375 8.85 43.2C9.04916 43.3774 9.21132 43.5924 9.32716 43.8327C9.443 44.0729 9.51023 44.3337 9.525 44.6V49.05C9.5387 49.3781 9.63196 49.6979 9.79675 49.9818C9.96153 50.2658 10.1929 50.5055 10.4709 50.6801C10.7489 50.8548 11.0652 50.9593 11.3926 50.9845C11.7199 51.0098 12.0485 50.955 12.35 50.825L17.35 48.65C17.7769 48.4888 18.248 48.4888 18.675 48.65C21.0386 49.288 23.4768 49.6075 25.925 49.6C32.3698 49.61 38.5545 47.0593 43.1187 42.5092C47.6828 37.9591 50.2526 31.7823 50.2625 25.3375C50.2724 18.8928 47.7218 12.708 43.1717 8.14384C38.6216 3.57967 32.4448 1.00997 26 1.00002ZM41 19.65L33.675 31.3C33.3987 31.7386 33.0345 32.1152 32.6054 32.406C32.1763 32.6967 31.6915 32.8954 31.1817 32.9893C30.6719 33.0833 30.1482 33.0706 29.6436 32.9519C29.139 32.8333 28.6645 32.6113 28.25 32.3L22.4 27.925C22.1404 27.7303 21.8246 27.625 21.5 27.625C21.1754 27.625 20.8596 27.7303 20.6 27.925L12.7 33.925C12.48 34.0947 12.207 34.1809 11.9294 34.1684C11.6518 34.1558 11.3877 34.0453 11.1839 33.8565C10.9801 33.6677 10.8497 33.4127 10.8161 33.1369C10.7824 32.8611 10.8476 32.5823 11 32.35L18.325 20.7C18.6013 20.2614 18.9655 19.8848 19.3946 19.5941C19.8237 19.3033 20.3085 19.1047 20.8183 19.0107C21.328 18.9167 21.8518 18.9295 22.3564 19.0481C22.861 19.1668 23.3355 19.3887 23.75 19.7L29.6 24.075C29.8596 24.2698 30.1754 24.375 30.5 24.375C30.8246 24.375 31.1404 24.2698 31.4 24.075L39.3 18.075C39.52 17.9053 39.793 17.8191 40.0706 17.8317C40.3482 17.8442 40.6123 17.9547 40.8161 18.1435C41.0199 18.3324 41.1503 18.5873 41.1839 18.8631C41.2176 19.1389 41.1524 19.4177 41 19.65Z" fill="white"/>
</svg>
